<?xml version="1.0" encoding="utf-8"?>
<!-- Generator: Adobe Illustrator 23.0.6, SVG Export Plug-In . SVG Version: 6.00 Build 0)  -->
<svg version="1.1" id="레이어_1" xmlns="http://www.w3.org/2000/svg" xmlns:xlink="http://www.w3.org/1999/xlink" x="0px"
	 y="0px" viewBox="0 0 399.14 451.65" style="enable-background:new 0 0 399.14 451.65;" xml:space="preserve">
<style type="text/css">
	.st0{fill:#FFFFFF;stroke:#FFFFFF;stroke-miterlimit:10;}
	.st1{fill:#FFFFFF;}
</style>
<path class="st0" d="M53.87,272.65c0,0-51.31,79,0,79S53.87,272.65,53.87,272.65z"/>
<path class="st0" d="M129.87,372.65c0,0-51.31,79,0,79S129.87,372.65,129.87,372.65z"/>
<path class="st0" d="M215.87,312.15c0,0-51.31,79,0,79S215.87,312.15,215.87,312.15z"/>
<path class="st0" d="M291.87,262.15c0,0-51.31,79,0,79S291.87,262.15,291.87,262.15z"/>
<path class="st0" d="M361.56,372.65c0,0-51.31,79,0,79S361.56,372.65,361.56,372.65z"/>
<ellipse class="st1" cx="87.57" cy="160.99" rx="87.57" ry="82.41"/>
<ellipse class="st1" cx="137.46" cy="66.12" rx="70.26" ry="66.12"/>
<ellipse class="st1" cx="198.55" cy="144.7" rx="70.26" ry="66.12"/>
<ellipse class="st1" cx="245.39" cy="89.12" rx="70.26" ry="66.12"/>
<ellipse class="st1" cx="328.88" cy="131.28" rx="70.26" ry="66.12"/>
<ellipse class="st1" cx="269.83" cy="177.28" rx="70.26" ry="66.12"/>
<ellipse class="st1" cx="176.15" cy="177.28" rx="70.26" ry="66.12"/>
</svg>
